<svg width="19" height="18" viewBox="0 0 19 18" fill="none" xmlns="http://www.w3.org/2000/svg">
<path d="M12.2796 13.3568L12.5222 13.3871L12.6951 13.2142L14.1628 11.7464C14.1632 11.7461 14.1635 11.7458 14.1639 11.7454C14.2928 11.6185 14.4558 11.5315 14.6331 11.4952C14.8105 11.4588 14.9946 11.4746 15.1632 11.5406C15.1635 11.5407 15.1639 11.5409 15.1642 11.541L16.9506 12.2543C16.951 12.2544 16.9515 12.2546 16.9519 12.2548C17.1216 12.3239 17.2671 12.4417 17.3702 12.5933C17.4731 12.7447 17.5291 12.923 17.5312 13.106V16.3825C17.53 16.5066 17.5038 16.6292 17.4542 16.7429C17.4043 16.8572 17.3319 16.9602 17.2411 17.0457C17.1504 17.1313 17.0434 17.1976 16.9263 17.2406C16.8101 17.2834 16.6865 17.3024 16.5628 17.2964C10.4504 16.9153 6.81535 14.1495 4.63464 11.0033C2.43858 7.83503 1.70054 4.25287 1.46548 2.25802C1.4513 2.12883 1.46453 1.99809 1.50432 1.87436C1.54425 1.75017 1.61003 1.63584 1.69731 1.53889C1.7846 1.44195 1.89143 1.36459 2.01077 1.31189C2.1301 1.2592 2.25925 1.23237 2.38969 1.23317L2.38969 1.23318H2.39276H5.56163C5.74448 1.23385 5.92296 1.28915 6.07417 1.39197C6.22557 1.49492 6.3427 1.6408 6.41051 1.81086L6.41059 1.81108L7.12591 3.60265L7.12589 3.60265L7.12726 3.60601C7.19533 3.77297 7.2127 3.95629 7.17719 4.13307C7.14171 4.30971 7.05501 4.47199 6.92791 4.59968C6.92781 4.59977 6.92772 4.59987 6.92762 4.59997L5.45827 6.06932L5.28043 6.24716L5.3172 6.49596L5.81183 6.42287C5.3172 6.49596 5.31723 6.49621 5.31727 6.49648L5.31737 6.49714L5.31763 6.49886L5.3184 6.50384L5.32097 6.51997C5.32317 6.53342 5.32635 6.55221 5.33064 6.576C5.3392 6.62358 5.35221 6.69124 5.37064 6.77632C5.4075 6.94638 5.4662 7.18667 5.55489 7.47575C5.73186 8.05265 6.03039 8.83102 6.51794 9.63521C7.49809 11.2519 9.25006 12.979 12.2796 13.3568Z" stroke="white" stroke-opacity="0.9"/>
</svg>
